<mxfile host="app.diagrams.net" agent="Mozilla/5.0 (X11; Linux x86_64) AppleWebKit/537.36 (KHTML, like Gecko) Chrome/141.0.0.0 Safari/537.36" version="28.2.5">
  <diagram name="Página-1" id="j_F5d38Wq7DjYENcEjuW">
    <mxGraphModel dx="1426" dy="679" grid="1" gridSize="10" guides="1" tooltips="1" connect="1" arrows="1" fold="1" page="1" pageScale="1" pageWidth="827" pageHeight="1169" math="0" shadow="0">
      <root>
        <mxCell id="0" />
        <mxCell id="1" parent="0" />
        <mxCell id="wt_B5zRHY2Ie-t_TbI_Y-1" value="VISTA" style="rounded=0;whiteSpace=wrap;html=1;" vertex="1" parent="1">
          <mxGeometry x="120" y="20" width="120" height="60" as="geometry" />
        </mxCell>
        <mxCell id="wt_B5zRHY2Ie-t_TbI_Y-2" value="CONTROLADOR" style="rounded=0;whiteSpace=wrap;html=1;" vertex="1" parent="1">
          <mxGeometry x="320" y="20" width="120" height="60" as="geometry" />
        </mxCell>
        <mxCell id="wt_B5zRHY2Ie-t_TbI_Y-3" value="MODELO" style="rounded=0;whiteSpace=wrap;html=1;" vertex="1" parent="1">
          <mxGeometry x="520" y="20" width="120" height="60" as="geometry" />
        </mxCell>
        <mxCell id="wt_B5zRHY2Ie-t_TbI_Y-4" value="" style="ellipse;whiteSpace=wrap;html=1;aspect=fixed;fillStyle=solid;fillColor=light-dark(#FFFFFF,#121212);" vertex="1" parent="1">
          <mxGeometry x="170" y="930" width="20" height="20" as="geometry" />
        </mxCell>
        <mxCell id="wt_B5zRHY2Ie-t_TbI_Y-5" style="edgeStyle=orthogonalEdgeStyle;rounded=0;orthogonalLoop=1;jettySize=auto;html=1;exitX=0.5;exitY=1;exitDx=0;exitDy=0;entryX=0.5;entryY=0;entryDx=0;entryDy=0;" edge="1" parent="1" source="wt_B5zRHY2Ie-t_TbI_Y-6" target="wt_B5zRHY2Ie-t_TbI_Y-8">
          <mxGeometry relative="1" as="geometry" />
        </mxCell>
        <mxCell id="wt_B5zRHY2Ie-t_TbI_Y-6" value="vista préstamo" style="rounded=1;whiteSpace=wrap;html=1;" vertex="1" parent="1">
          <mxGeometry x="120" y="120" width="120" height="40" as="geometry" />
        </mxCell>
        <mxCell id="wt_B5zRHY2Ie-t_TbI_Y-7" style="edgeStyle=orthogonalEdgeStyle;rounded=0;orthogonalLoop=1;jettySize=auto;html=1;exitX=1;exitY=0.5;exitDx=0;exitDy=0;entryX=0;entryY=0.5;entryDx=0;entryDy=0;" edge="1" parent="1" source="wt_B5zRHY2Ie-t_TbI_Y-8" target="wt_B5zRHY2Ie-t_TbI_Y-29">
          <mxGeometry relative="1" as="geometry" />
        </mxCell>
        <mxCell id="wt_B5zRHY2Ie-t_TbI_Y-8" value="listar préstamo&amp;nbsp;por garante" style="rounded=1;whiteSpace=wrap;html=1;" vertex="1" parent="1">
          <mxGeometry x="120" y="200" width="120" height="40" as="geometry" />
        </mxCell>
        <mxCell id="wt_B5zRHY2Ie-t_TbI_Y-9" style="edgeStyle=orthogonalEdgeStyle;rounded=0;orthogonalLoop=1;jettySize=auto;html=1;exitX=1;exitY=0.5;exitDx=0;exitDy=0;entryX=0;entryY=0.5;entryDx=0;entryDy=0;" edge="1" parent="1" source="wt_B5zRHY2Ie-t_TbI_Y-10" target="wt_B5zRHY2Ie-t_TbI_Y-12">
          <mxGeometry relative="1" as="geometry" />
        </mxCell>
        <mxCell id="wt_B5zRHY2Ie-t_TbI_Y-10" value="recuperar lista préstamos" style="rounded=1;whiteSpace=wrap;html=1;" vertex="1" parent="1">
          <mxGeometry x="320" y="600" width="120" height="40" as="geometry" />
        </mxCell>
        <mxCell id="wt_B5zRHY2Ie-t_TbI_Y-11" style="edgeStyle=orthogonalEdgeStyle;rounded=0;orthogonalLoop=1;jettySize=auto;html=1;exitX=0.5;exitY=1;exitDx=0;exitDy=0;entryX=1;entryY=0.5;entryDx=0;entryDy=0;" edge="1" parent="1" source="wt_B5zRHY2Ie-t_TbI_Y-12" target="wt_B5zRHY2Ie-t_TbI_Y-17">
          <mxGeometry relative="1" as="geometry" />
        </mxCell>
        <mxCell id="wt_B5zRHY2Ie-t_TbI_Y-12" value="recuperar préstamos&amp;nbsp;que coincidan" style="rounded=1;whiteSpace=wrap;html=1;" vertex="1" parent="1">
          <mxGeometry x="520" y="600" width="120" height="40" as="geometry" />
        </mxCell>
        <mxCell id="wt_B5zRHY2Ie-t_TbI_Y-13" style="edgeStyle=orthogonalEdgeStyle;rounded=0;orthogonalLoop=1;jettySize=auto;html=1;exitX=0;exitY=0.5;exitDx=0;exitDy=0;entryX=1;entryY=0.5;entryDx=0;entryDy=0;" edge="1" parent="1" source="wt_B5zRHY2Ie-t_TbI_Y-15" target="wt_B5zRHY2Ie-t_TbI_Y-19">
          <mxGeometry relative="1" as="geometry" />
        </mxCell>
        <mxCell id="wt_B5zRHY2Ie-t_TbI_Y-14" style="edgeStyle=orthogonalEdgeStyle;rounded=0;orthogonalLoop=1;jettySize=auto;html=1;exitX=0.5;exitY=1;exitDx=0;exitDy=0;entryX=1;entryY=0.5;entryDx=0;entryDy=0;" edge="1" parent="1" source="wt_B5zRHY2Ie-t_TbI_Y-15" target="wt_B5zRHY2Ie-t_TbI_Y-21">
          <mxGeometry relative="1" as="geometry" />
        </mxCell>
        <mxCell id="wt_B5zRHY2Ie-t_TbI_Y-15" value="" style="rhombus;whiteSpace=wrap;html=1;" vertex="1" parent="1">
          <mxGeometry x="360" y="760" width="40" height="40" as="geometry" />
        </mxCell>
        <mxCell id="wt_B5zRHY2Ie-t_TbI_Y-16" style="edgeStyle=orthogonalEdgeStyle;rounded=0;orthogonalLoop=1;jettySize=auto;html=1;exitX=0.5;exitY=1;exitDx=0;exitDy=0;entryX=0.5;entryY=0;entryDx=0;entryDy=0;" edge="1" parent="1" source="wt_B5zRHY2Ie-t_TbI_Y-17" target="wt_B5zRHY2Ie-t_TbI_Y-15">
          <mxGeometry relative="1" as="geometry" />
        </mxCell>
        <mxCell id="wt_B5zRHY2Ie-t_TbI_Y-17" value="comprobar lista" style="rounded=1;whiteSpace=wrap;html=1;" vertex="1" parent="1">
          <mxGeometry x="320" y="680" width="120" height="40" as="geometry" />
        </mxCell>
        <mxCell id="wt_B5zRHY2Ie-t_TbI_Y-18" style="edgeStyle=orthogonalEdgeStyle;rounded=0;orthogonalLoop=1;jettySize=auto;html=1;exitX=0;exitY=0.5;exitDx=0;exitDy=0;entryX=0;entryY=0.5;entryDx=0;entryDy=0;" edge="1" parent="1" source="wt_B5zRHY2Ie-t_TbI_Y-19" target="wt_B5zRHY2Ie-t_TbI_Y-4">
          <mxGeometry relative="1" as="geometry" />
        </mxCell>
        <mxCell id="wt_B5zRHY2Ie-t_TbI_Y-19" value="informar lista vacia" style="rounded=1;whiteSpace=wrap;html=1;" vertex="1" parent="1">
          <mxGeometry x="120" y="760" width="120" height="40" as="geometry" />
        </mxCell>
        <mxCell id="wt_B5zRHY2Ie-t_TbI_Y-20" style="edgeStyle=orthogonalEdgeStyle;rounded=0;orthogonalLoop=1;jettySize=auto;html=1;exitX=0.5;exitY=1;exitDx=0;exitDy=0;entryX=0.5;entryY=0;entryDx=0;entryDy=0;" edge="1" parent="1" source="wt_B5zRHY2Ie-t_TbI_Y-21" target="wt_B5zRHY2Ie-t_TbI_Y-4">
          <mxGeometry relative="1" as="geometry" />
        </mxCell>
        <mxCell id="wt_B5zRHY2Ie-t_TbI_Y-21" value="mostrar lista" style="rounded=1;whiteSpace=wrap;html=1;" vertex="1" parent="1">
          <mxGeometry x="120" y="840" width="120" height="40" as="geometry" />
        </mxCell>
        <mxCell id="wt_B5zRHY2Ie-t_TbI_Y-22" style="edgeStyle=orthogonalEdgeStyle;rounded=0;orthogonalLoop=1;jettySize=auto;html=1;exitX=0.5;exitY=1;exitDx=0;exitDy=0;entryX=0.5;entryY=0;entryDx=0;entryDy=0;" edge="1" parent="1" source="wt_B5zRHY2Ie-t_TbI_Y-23" target="wt_B5zRHY2Ie-t_TbI_Y-25">
          <mxGeometry relative="1" as="geometry" />
        </mxCell>
        <mxCell id="wt_B5zRHY2Ie-t_TbI_Y-23" value="mostrar formulario" style="rounded=1;whiteSpace=wrap;html=1;" vertex="1" parent="1">
          <mxGeometry x="120" y="440" width="120" height="40" as="geometry" />
        </mxCell>
        <mxCell id="wt_B5zRHY2Ie-t_TbI_Y-24" style="edgeStyle=orthogonalEdgeStyle;rounded=0;orthogonalLoop=1;jettySize=auto;html=1;exitX=0.5;exitY=1;exitDx=0;exitDy=0;entryX=0.5;entryY=0;entryDx=0;entryDy=0;" edge="1" parent="1" source="wt_B5zRHY2Ie-t_TbI_Y-25" target="wt_B5zRHY2Ie-t_TbI_Y-27">
          <mxGeometry relative="1" as="geometry" />
        </mxCell>
        <mxCell id="wt_B5zRHY2Ie-t_TbI_Y-25" value="seleccionar garante" style="rounded=1;whiteSpace=wrap;html=1;" vertex="1" parent="1">
          <mxGeometry x="120" y="520" width="120" height="40" as="geometry" />
        </mxCell>
        <mxCell id="wt_B5zRHY2Ie-t_TbI_Y-26" style="edgeStyle=orthogonalEdgeStyle;rounded=0;orthogonalLoop=1;jettySize=auto;html=1;exitX=1;exitY=0.5;exitDx=0;exitDy=0;entryX=0;entryY=0.5;entryDx=0;entryDy=0;" edge="1" parent="1" source="wt_B5zRHY2Ie-t_TbI_Y-27" target="wt_B5zRHY2Ie-t_TbI_Y-10">
          <mxGeometry relative="1" as="geometry" />
        </mxCell>
        <mxCell id="wt_B5zRHY2Ie-t_TbI_Y-27" value="confirmar formulario" style="rounded=1;whiteSpace=wrap;html=1;" vertex="1" parent="1">
          <mxGeometry x="120" y="600" width="120" height="40" as="geometry" />
        </mxCell>
        <mxCell id="wt_B5zRHY2Ie-t_TbI_Y-28" style="edgeStyle=orthogonalEdgeStyle;rounded=0;orthogonalLoop=1;jettySize=auto;html=1;exitX=1;exitY=0.5;exitDx=0;exitDy=0;entryX=0;entryY=0.5;entryDx=0;entryDy=0;" edge="1" parent="1" source="wt_B5zRHY2Ie-t_TbI_Y-29" target="wt_B5zRHY2Ie-t_TbI_Y-36">
          <mxGeometry relative="1" as="geometry" />
        </mxCell>
        <mxCell id="wt_B5zRHY2Ie-t_TbI_Y-29" value="recuperar lista garantes" style="rounded=1;whiteSpace=wrap;html=1;" vertex="1" parent="1">
          <mxGeometry x="320" y="200" width="120" height="40" as="geometry" />
        </mxCell>
        <mxCell id="wt_B5zRHY2Ie-t_TbI_Y-30" style="edgeStyle=orthogonalEdgeStyle;rounded=0;orthogonalLoop=1;jettySize=auto;html=1;exitX=0;exitY=0.5;exitDx=0;exitDy=0;entryX=1;entryY=0.5;entryDx=0;entryDy=0;" edge="1" parent="1" source="wt_B5zRHY2Ie-t_TbI_Y-32" target="wt_B5zRHY2Ie-t_TbI_Y-34">
          <mxGeometry relative="1" as="geometry" />
        </mxCell>
        <mxCell id="wt_B5zRHY2Ie-t_TbI_Y-31" style="edgeStyle=orthogonalEdgeStyle;rounded=0;orthogonalLoop=1;jettySize=auto;html=1;exitX=0.5;exitY=1;exitDx=0;exitDy=0;entryX=1;entryY=0.5;entryDx=0;entryDy=0;" edge="1" parent="1" source="wt_B5zRHY2Ie-t_TbI_Y-32" target="wt_B5zRHY2Ie-t_TbI_Y-23">
          <mxGeometry relative="1" as="geometry" />
        </mxCell>
        <mxCell id="wt_B5zRHY2Ie-t_TbI_Y-32" value="" style="rhombus;whiteSpace=wrap;html=1;" vertex="1" parent="1">
          <mxGeometry x="360" y="360" width="40" height="40" as="geometry" />
        </mxCell>
        <mxCell id="wt_B5zRHY2Ie-t_TbI_Y-33" style="edgeStyle=orthogonalEdgeStyle;rounded=0;orthogonalLoop=1;jettySize=auto;html=1;exitX=0;exitY=0.5;exitDx=0;exitDy=0;entryX=0.5;entryY=1;entryDx=0;entryDy=0;" edge="1" parent="1" source="wt_B5zRHY2Ie-t_TbI_Y-34" target="wt_B5zRHY2Ie-t_TbI_Y-4">
          <mxGeometry relative="1" as="geometry">
            <Array as="points">
              <mxPoint x="80" y="380" />
              <mxPoint x="80" y="960" />
              <mxPoint x="180" y="960" />
            </Array>
          </mxGeometry>
        </mxCell>
        <mxCell id="wt_B5zRHY2Ie-t_TbI_Y-34" value="informar lista vacia" style="rounded=1;whiteSpace=wrap;html=1;" vertex="1" parent="1">
          <mxGeometry x="120" y="360" width="120" height="40" as="geometry" />
        </mxCell>
        <mxCell id="wt_B5zRHY2Ie-t_TbI_Y-35" style="edgeStyle=orthogonalEdgeStyle;rounded=0;orthogonalLoop=1;jettySize=auto;html=1;exitX=0.5;exitY=1;exitDx=0;exitDy=0;entryX=1;entryY=0.5;entryDx=0;entryDy=0;" edge="1" parent="1" source="wt_B5zRHY2Ie-t_TbI_Y-36" target="wt_B5zRHY2Ie-t_TbI_Y-38">
          <mxGeometry relative="1" as="geometry" />
        </mxCell>
        <mxCell id="wt_B5zRHY2Ie-t_TbI_Y-36" value="recuperar garantes" style="rounded=1;whiteSpace=wrap;html=1;" vertex="1" parent="1">
          <mxGeometry x="520" y="200" width="120" height="40" as="geometry" />
        </mxCell>
        <mxCell id="wt_B5zRHY2Ie-t_TbI_Y-37" style="edgeStyle=orthogonalEdgeStyle;rounded=0;orthogonalLoop=1;jettySize=auto;html=1;exitX=0.5;exitY=1;exitDx=0;exitDy=0;entryX=0.5;entryY=0;entryDx=0;entryDy=0;" edge="1" parent="1" source="wt_B5zRHY2Ie-t_TbI_Y-38" target="wt_B5zRHY2Ie-t_TbI_Y-32">
          <mxGeometry relative="1" as="geometry" />
        </mxCell>
        <mxCell id="wt_B5zRHY2Ie-t_TbI_Y-38" value="comprobar lista" style="rounded=1;whiteSpace=wrap;html=1;" vertex="1" parent="1">
          <mxGeometry x="320" y="280" width="120" height="40" as="geometry" />
        </mxCell>
      </root>
    </mxGraphModel>
  </diagram>
</mxfile>
